# xmcd
#
# Track frame offsets: 
#        150
#        3028
#        24319
#        42885
#        51850
#        68829
#        84080
#        101218
#        120907
#        144517
#        165936
#        186414
#        208697
#        229980
#        254593
#        290119
#
# Disc length: 3947 seconds
#
# Revision: 5
# Processed by: cddbd v1.5.2PL0 Copyright (c) Steve Scherf et al.
# Submitted via: ExactAudioCopy v0.99pb3
#
DISCID=d70f6910
DTITLE=Bobby Valentino - Special Occasion
DYEAR=2007
DGENRE=R&B
TTITLE0=Intro
TTITLE1=Anonymous (Feat. Timbaland)
TTITLE2=Checkin' For Me
TTITLE3=Special Occasion (Interlude)
TTITLE4=Rearview (Ridin') (Feat. Ludacris)
TTITLE5=If I Had My Way
TTITLE6=How 'Bout It
TTITLE7=Turn The Page
TTITLE8=Home Is Where You Belong
TTITLE9=Let Him Go (Feat. Fabolous)
TTITLE10=Only Human
TTITLE11=Can't Wait `Til Later
TTITLE12=I Was Wrong
TTITLE13=Soon As I Get Home
TTITLE14=Over and Over
TTITLE15=Right there (Thank you)
EXTD=YEAR: 2007
EXTT0=
EXTT1=
EXTT2=
EXTT3=
EXTT4=
EXTT5=
EXTT6=
EXTT7=
EXTT8=
EXTT9=
EXTT10=
EXTT11=
EXTT12=
EXTT13=
EXTT14=
EXTT15=
PLAYORDER=
